<svg id="Camada_1" data-name="Camada 1" xmlns="http://www.w3.org/2000/svg" viewBox="0 0 415.34 52.41"><defs><style>.cls-1{fill:#fff;stroke:#000;stroke-miterlimit:10;stroke-width:5px;}.cls-2{fill:#f74d27;}.cls-3{fill:#f48c28;}.cls-4{fill:#f7e724;}.cls-5{fill:#c0f825;}.cls-6{fill:#43f828;}.cls-7{fill:#24f891;}.cls-8{fill:#25eaf8;}.cls-9{fill:#2482f8;}.cls-10{fill:#7824ed;}.cls-11{fill:#f727c4;}</style></defs><rect class="cls-1" x="2.5" y="2.5" width="410.34" height="47.41" rx="16.1"/><path class="cls-2" d="M17.72,5.28H42.6a0,0,0,0,1,0,0V47.13a0,0,0,0,1,0,0H17.72A12.59,12.59,0,0,1,5.13,34.55V17.87A12.59,12.59,0,0,1,17.72,5.28Z"/><path class="cls-2" d="M1090.41,431h24.88a0,0,0,0,1,0,0v41.85a0,0,0,0,1,0,0h-24.88a12.59,12.59,0,0,1-12.59-12.59V443.59A12.59,12.59,0,0,1,1090.41,431Z" transform="translate(1488.77 478.13) rotate(180)"/><rect class="cls-3" x="41.97" y="5.28" width="37.46" height="41.85"/><rect class="cls-4" x="78.8" y="5.28" width="37.46" height="41.85"/><rect class="cls-5" x="115.64" y="5.28" width="37.46" height="41.85"/><rect class="cls-6" x="152.47" y="5.28" width="37.46" height="41.85"/><rect class="cls-7" x="189.3" y="5.28" width="37.46" height="41.85"/><rect class="cls-8" x="226.14" y="5.28" width="37.46" height="41.85"/><rect class="cls-9" x="262.97" y="5.28" width="37.46" height="41.85"/><rect class="cls-10" x="299.81" y="5.28" width="37.46" height="41.85"/><rect class="cls-11" x="336.64" y="5.28" width="37.46" height="41.85"/></svg>